<svg xmlns="http://www.w3.org/2000/svg" viewBox="0 0 64 64" fill="none">
  <rect width="64" height="64" rx="12" fill="#25D366"/>
  <path d="M32 12C21 12 12 21 12 32c0 3.5.9 6.9 2.6 9.9L12 52l10.3-2.7c2.9 1.6 6.2 2.4 9.7 2.4 11 0 20-9 20-20S43 12 32 12zm11.4 28.3c-.5 1.4-2.8 2.6-3.9 2.8-1 .2-2.3.3-7.4-1.6-6.5-2.4-10.7-9-11-9.4-.3-.4-2.7-3.6-2.7-6.8 0-3.2 1.7-4.8 2.3-5.5.6-.6 1.3-.8 1.7-.8h1.2c.4 0 .9-.1 1.4 1.1.5 1.2 1.8 4.3 1.9 4.6.1.3.2.7 0 1.1-.2.4-.3.7-.6 1-.3.4-.6.8-.9 1.1-.3.3-.6.7-.3 1.3.4.6 1.6 2.6 3.4 4.3 2.4 2.1 4.4 2.8 5 3.1.6.3 1 .3 1.3-.2.4-.5 1.5-1.8 1.9-2.4.4-.6.9-.5 1.4-.3.6.2 3.7 1.7 4.3 2.1.6.3 1 .5 1.2.7.1.3.1 1.5-.4 2.9z" fill="white"/>
</svg>
